<svg xmlns="http://www.w3.org/2000/svg" xmlns:xlink="http://www.w3.org/1999/xlink" width="500" zoomAndPan="magnify" viewBox="0 0 375 374.999991" height="500" preserveAspectRatio="xMidYMid meet" version="1.0"><defs><clipPath id="4470299b39"><path d="M 1.964844 1.964844 L 373.035156 1.964844 L 373.035156 373.035156 L 1.964844 373.035156 Z M 1.964844 1.964844 " clip-rule="nonzero"/></clipPath><clipPath id="aae5a9ea70"><path d="M 187.5 1.964844 C 85.03125 1.964844 1.964844 85.03125 1.964844 187.5 C 1.964844 289.96875 85.03125 373.035156 187.5 373.035156 C 289.96875 373.035156 373.035156 289.96875 373.035156 187.5 C 373.035156 85.03125 289.96875 1.964844 187.5 1.964844 Z M 187.5 1.964844 " clip-rule="nonzero"/></clipPath><clipPath id="f9d42d5d57"><path d="M 93 80 L 336 80 L 336 327 L 93 327 Z M 93 80 " clip-rule="nonzero"/></clipPath><clipPath id="304f5ada3d"><path d="M 37.5 279.761719 L 247.460938 23.230469 L 335.679688 95.433594 L 125.71875 351.96875 Z M 37.5 279.761719 " clip-rule="nonzero"/></clipPath><clipPath id="d4bf3ad239"><path d="M 125.765625 352.003906 L 335.726562 95.472656 L 247.507812 23.269531 L 37.542969 279.800781 Z M 125.765625 352.003906 " clip-rule="nonzero"/></clipPath><clipPath id="5a00aee9bd"><path d="M 125.601562 351.871094 L 335.78125 95.074219 L 247.832031 23.089844 L 37.652344 279.886719 Z M 125.601562 351.871094 " clip-rule="nonzero"/></clipPath></defs><g clip-path="url(#4470299b39)"><g clip-path="url(#aae5a9ea70)"><path fill="#000000" d="M 1.964844 1.964844 L 373.035156 1.964844 L 373.035156 373.035156 L 1.964844 373.035156 Z M 1.964844 1.964844 " fill-opacity="1" fill-rule="nonzero"/></g></g><g clip-path="url(#f9d42d5d57)"><g clip-path="url(#304f5ada3d)"><g clip-path="url(#d4bf3ad239)"><g clip-path="url(#5a00aee9bd)"><path fill="#ffffff" d="M 327.992188 101.960938 C 322.355469 106.46875 316.917969 110.820312 311.527344 115.054688 L 300.542969 109.933594 L 303.484375 121.320312 C 294.578125 128.179688 285.609375 134.808594 275.910156 141.425781 C 275.503906 141.710938 275.058594 141.933594 274.660156 142.226562 C 260.667969 152.640625 243.746094 151.6875 232.734375 146.160156 C 232.375 145.972656 232.113281 145.484375 231.160156 146.039062 C 236.636719 154.605469 245.515625 154.980469 254.4375 155.230469 C 254.640625 155.710938 254.335938 155.894531 254.101562 156.050781 C 241.113281 164.957031 228.5625 175.292969 215.886719 186.21875 C 197.132812 202.488281 178.28125 213.453125 157.671875 220.375 C 156.863281 220.652344 156.046875 220.910156 155.101562 221.226562 C 160.984375 224.789062 174.257812 220.574219 187.125 213.679688 C 175.167969 236.792969 163.582031 258.113281 134.125 260.152344 C 138.039062 266.402344 148 267.246094 148.316406 267.453125 C 148.324219 267.457031 148.324219 267.457031 148.324219 267.457031 C 132.34375 273.960938 120.203125 260.648438 119.617188 258.699219 C 119.582031 258.625 119.5625 258.585938 119.5625 258.585938 C 119.621094 258.484375 119.679688 258.378906 119.734375 258.277344 C 121.648438 254.886719 123.613281 251.5625 125.636719 248.316406 C 162.175781 188.40625 210.390625 142.855469 264.449219 115.941406 C 263.886719 114.90625 263.449219 115.214844 263.109375 115.34375 C 240.847656 124.199219 218.804688 136.398438 198.089844 152.6875 C 168.351562 176.027344 141.972656 207.765625 121.140625 245.066406 C 121.144531 245.070312 121.144531 245.070312 121.148438 245.070312 C 109.351562 269.011719 100.5 296.164062 95.960938 326.03125 C 95.800781 327.125 95.046875 327.207031 94.4375 326.191406 C 94.011719 325.488281 93.792969 324.457031 93.902344 323.683594 C 97.6875 297.34375 104.800781 273.039062 114.34375 251.125 C 115.835938 247.507812 117.535156 240.777344 116.796875 238.460938 C 112.542969 226.0625 113.320312 211.910156 117.292969 198.140625 C 124.210938 174.1875 137.078125 156.441406 151.335938 142.363281 C 146.453125 151.140625 142.628906 165.191406 140.773438 176.949219 C 138.808594 188.722656 138.808594 198.203125 138.886719 198.183594 C 139.222656 195.640625 139.558594 193.089844 140.019531 190.554688 C 146.304688 155.816406 164.632812 127.109375 189.011719 110.703125 C 192.042969 108.648438 195.101562 106.664062 198.183594 104.761719 L 193.488281 114.820312 C 193.488281 114.820312 210.183594 97.992188 214.992188 95.390625 L 217.035156 94.253906 C 217.617188 93.859375 217.945312 93.667969 217.945312 93.710938 C 218.171875 93.59375 218.398438 93.484375 218.628906 93.371094 L 218.691406 93.332031 L 218.695312 93.339844 C 225.824219 89.800781 233.023438 86.671875 240.261719 83.972656 C 241.007812 83.691406 241.921875 83.011719 242.519531 83.613281 C 233.96875 92.296875 226.136719 101.894531 224.519531 113.199219 C 226.453125 109.75 228.390625 106.292969 230.621094 102.972656 C 240.753906 87.875 254.597656 79.320312 269.21875 81.113281 C 276.050781 81.929688 282.695312 83.132812 289.109375 84.765625 C 304.539062 88.761719 319.199219 93.332031 335.78125 95.066406 C 333.191406 97.867188 330.574219 99.917969 327.992188 101.960938 " fill-opacity="1" fill-rule="nonzero"/></g></g></g></g></svg>